# xmcd
#
# Track frame offsets:
#	150
#	27318
#	46580
#	73961
#	111577
#	138119
#	162717
#	183332
#	211030
#	236260
#	254916
#	277931
#	299201
#
# Disc length: 4605 seconds
# Revision: 1
# Processed by: cddbd v1.5.2PL0 Copyright (c) Steve Scherf et al.
# Submitted via: dBpowerAMP V12.0
#
DISCID=cb11fb0d
DTITLE=The Boom Band - The Moon Goes Boom [Live in London]
DYEAR=2015
DGENRE=Blues
TTITLE0=Diamonds In The Rust
TTITLE1=Under the Skin
TTITLE2=Junko Partner
TTITLE3=Red Eye of the Devil
TTITLE4=Moonshine
TTITLE5=Monty's Theme
TTITLE6=Waste My Time
TTITLE7=When You Come Home
TTITLE8=Can't Find My Way Home
TTITLE9=I'm a Ram
TTITLE10=Rooster Blues
TTITLE11=Don't You Just Know It
TTITLE12=We Can Work Together
EXTD=
EXTT0=
EXTT1=
EXTT2=
EXTT3=
EXTT4=
EXTT5=
EXTT6=
EXTT7=
EXTT8=
EXTT9=
EXTT10=
EXTT11=
EXTT12=
PLAYORDER=
